<svg width="124" height="25" viewBox="0 0 124 25" fill="none" xmlns="http://www.w3.org/2000/svg">
<path d="M0.39209 1.9878H4.7869V19.4306H0.39209V1.9878ZM6.53016 12.8446C6.53016 8.53065 9.22564 5.95665 13.3861 5.95665C17.5465 5.95665 20.2419 8.53065 20.2419 12.8446C20.2419 17.1586 17.6051 19.747 13.3861 19.747C9.16704 19.747 6.53016 17.2305 6.53016 12.8446ZM15.8325 12.8446C15.8325 10.4719 14.8803 9.07709 13.3861 9.07709C11.8918 9.07709 10.9543 10.5151 10.9543 12.8446C10.9543 15.1742 11.8772 16.5834 13.3861 16.5834C14.8949 16.5834 15.8325 15.2605 15.8325 12.859V12.8446ZM21.8973 20.279H26.1163C26.3171 20.7169 26.6566 21.0794 27.0842 21.3126C27.5118 21.5458 28.0047 21.6372 28.4895 21.5732C30.1596 21.5732 31.0385 20.6817 31.0385 19.3875V16.9717H30.9506C30.6005 17.7121 30.0323 18.3325 29.3194 18.7529C28.6066 19.1732 27.7817 19.3742 26.9514 19.33C23.7431 19.33 21.619 16.9285 21.619 12.8015C21.619 8.67445 23.6406 6.07169 27.0099 6.07169C27.8663 6.03874 28.7125 6.26348 29.4352 6.71581C30.1578 7.16815 30.7224 7.82646 31.0532 8.60255V8.60255V6.20111H35.448V19.2868C35.448 22.436 32.6206 24.3917 28.4456 24.3917C24.5635 24.3917 22.1464 22.6805 21.8973 20.2934V20.279ZM31.0532 12.8302C31.0532 10.7308 30.0717 9.40783 28.5188 9.40783C26.966 9.40783 26.0138 10.7164 26.0138 12.8302C26.0138 14.9441 26.9514 16.1376 28.5188 16.1376C30.0863 16.1376 31.0532 14.9729 31.0532 12.8446V12.8302ZM37.1033 12.8302C37.1033 8.51628 39.7988 5.94227 43.9592 5.94227C48.1197 5.94227 50.8298 8.51628 50.8298 12.8302C50.8298 17.1442 48.1929 19.7326 43.9592 19.7326C39.7256 19.7326 37.1033 17.2305 37.1033 12.8446V12.8302ZM46.4057 12.8302C46.4057 10.4576 45.4535 9.06271 43.9592 9.06271C42.465 9.06271 41.6007 10.5151 41.6007 12.859C41.6007 15.2029 42.5236 16.5978 44.0178 16.5978C45.5121 16.5978 46.4057 15.2605 46.4057 12.859V12.8302ZM52.4998 3.06629C52.4883 2.63073 52.6088 2.20162 52.846 1.83336C53.0832 1.4651 53.4265 1.17427 53.8323 0.997746C54.2381 0.821219 54.6882 0.766941 55.1255 0.841794C55.5627 0.916646 55.9675 1.11726 56.2885 1.4182C56.6095 1.71914 56.8322 2.10686 56.9284 2.5322C57.0247 2.95754 56.9901 3.40135 56.8291 3.80738C56.668 4.2134 56.3878 4.56335 56.0239 4.81286C55.66 5.06237 55.2289 5.20021 54.7851 5.2089C54.4909 5.22874 54.1957 5.18865 53.9181 5.09115C53.6404 4.99365 53.3863 4.84084 53.1717 4.64233C52.9571 4.44383 52.7866 4.2039 52.671 3.93763C52.5554 3.67136 52.4971 3.38449 52.4998 3.09505V3.06629ZM52.4998 6.22987H56.8946V19.4306H52.4998V6.22987ZM72.8477 12.8302C72.8477 17.1442 70.8994 19.6032 67.5593 19.6032C66.7029 19.6571 65.8502 19.4516 65.1166 19.0144C64.383 18.5772 63.8038 17.9294 63.4575 17.1586H63.3696V23.6583H58.9748V6.20111H63.3696V8.55941H63.4575C63.7877 7.77588 64.3558 7.1112 65.0845 6.6558C65.8132 6.20039 66.6671 5.97636 67.53 6.01417C70.8994 6.07169 72.9063 8.54504 72.9063 12.859L72.8477 12.8302ZM68.4529 12.8302C68.4529 10.7308 67.4714 9.39345 65.9333 9.39345C64.3951 9.39345 63.4136 10.7452 63.3989 12.8302C63.3843 14.9153 64.3951 16.2527 65.9333 16.2527C67.4714 16.2527 68.4529 14.9441 68.4529 12.859V12.8302ZM80.3922 5.92789C84.0398 5.92789 86.2519 7.62472 86.3544 10.3425H82.3552C82.3552 9.40783 81.5641 8.81825 80.3482 8.81825C79.1323 8.81825 78.5903 9.27841 78.5903 9.95427C78.5903 10.6301 79.0737 10.8458 80.0552 11.0471L82.8679 11.608C85.5487 12.1688 86.6914 13.2329 86.6914 15.2317C86.6914 17.9639 84.157 19.7182 80.4215 19.7182C76.6859 19.7182 74.2394 17.9639 74.049 15.2748H78.2827C78.4145 16.2527 79.2056 16.8279 80.4947 16.8279C81.7838 16.8279 82.3698 16.4108 82.3698 15.7206C82.3698 15.0304 81.9596 14.8866 80.9049 14.6709L78.3705 14.1388C75.7483 13.6068 74.3713 12.2407 74.3713 10.2275C74.4006 7.6391 76.7591 5.95665 80.3922 5.95665V5.92789ZM101.355 19.4019H97.1217V16.9429H97.0338C96.8011 17.7685 96.2877 18.4911 95.5789 18.9907C94.87 19.4903 94.0084 19.7369 93.1371 19.6895C92.4694 19.7267 91.8013 19.6229 91.178 19.3849C90.5547 19.147 89.9907 18.7804 89.5241 18.3102C89.0575 17.8399 88.6991 17.2767 88.4733 16.6588C88.2474 16.0409 88.1593 15.3826 88.2149 14.7284V6.20111H92.6097V13.7362C92.6097 15.3036 93.4301 16.1376 94.7925 16.1376C95.1119 16.1383 95.4279 16.0719 95.719 15.9429C96.0102 15.8139 96.27 15.6253 96.4808 15.3897C96.6917 15.1541 96.8488 14.877 96.9416 14.5769C97.0345 14.2769 97.0609 13.9608 97.0192 13.6499V6.20111H101.414L101.355 19.4019ZM103.48 6.20111H107.728V8.74635H107.816C108.049 7.93171 108.551 7.21596 109.243 6.71116C109.934 6.20636 110.777 5.94101 111.639 5.95665C112.516 5.88772 113.387 6.14533 114.079 6.67823C114.772 7.21113 115.234 7.98026 115.375 8.83264H115.463C115.728 7.9712 116.279 7.22103 117.027 6.70034C117.775 6.17964 118.678 5.91801 119.594 5.95665C120.191 5.93695 120.787 6.04088 121.341 6.26173C121.895 6.48257 122.395 6.81536 122.81 7.23849C123.224 7.66163 123.543 8.16562 123.747 8.71774C123.95 9.26985 124.032 9.85774 123.989 10.4432V19.4306H119.594V11.5936C119.594 10.1556 118.935 9.49411 117.704 9.49411C117.43 9.49183 117.158 9.54735 116.907 9.65691C116.657 9.76648 116.433 9.92756 116.251 10.1293C116.069 10.331 115.933 10.5686 115.853 10.8262C115.773 11.0838 115.749 11.3552 115.785 11.6223V19.4306H111.61V11.5361C111.61 10.2131 110.951 9.49411 109.749 9.49411C109.472 9.49419 109.198 9.55204 108.944 9.66383C108.691 9.77562 108.465 9.93881 108.281 10.1426C108.097 10.3465 107.959 10.5863 107.876 10.8463C107.794 11.1063 107.768 11.3806 107.801 11.6511V19.4306H103.406L103.48 6.20111Z" fill="#02133C"/>
</svg>
