<svg width="63" height="63" viewBox="0 0 63 63" fill="none" xmlns="http://www.w3.org/2000/svg">
<g clip-path="url(#clip0_514_957)">
<path d="M62.3026 13.5031C62.8935 14.227 63.1225 15.1674 62.9352 16.0817L58.6073 37.0826C58.3134 38.515 57.0388 39.5529 55.5786 39.5529H17.3233L18.2344 43.9721H55.291C56.1465 43.9721 56.8379 44.6651 56.8379 45.5189C56.8379 46.3727 56.1465 47.0657 55.291 47.0657H18.2344C16.7727 47.0657 15.4996 46.0278 15.2042 44.5971L7.71927 8.26562L0.930283 5.31742C0.146105 4.97867 -0.212823 4.06763 0.127525 3.28333C0.467872 2.49903 1.37891 2.14022 2.16161 2.48057L8.95208 5.42717C9.87394 5.82781 10.5468 6.6553 10.7494 7.64066L11.7224 12.3646H59.9052C60.8379 12.3647 61.7133 12.7792 62.3026 13.5031ZM55.5787 36.4591L59.9052 15.4582H12.3596L16.6861 36.4591H55.5787Z" fill="#02133C"/>
<path d="M59.9057 15.4583L55.5792 36.4592H16.6866L12.3601 15.4583H59.9057V15.4583ZM48.7611 21.9423C48.7611 21.0885 48.0697 20.3955 47.2142 20.3955H25.0486C24.1932 20.3955 23.5018 21.0885 23.5018 21.9423C23.5018 22.7962 24.1932 23.4892 25.0486 23.4892H47.2142C48.0697 23.4892 48.7611 22.7962 48.7611 21.9423ZM47.5546 29.975C47.5546 29.1211 46.8632 28.4281 46.0078 28.4281H26.2552C25.3998 28.4281 24.7084 29.1211 24.7084 29.975C24.7084 30.8288 25.3998 31.5218 26.2552 31.5218H46.0078C46.8631 31.5217 47.5546 30.8288 47.5546 29.975Z" fill="#C40B0B"/>
<path d="M45.8505 49.5667C48.907 49.5667 51.3912 52.0523 51.3912 55.1073C51.3912 58.1622 48.907 60.648 45.8505 60.648C42.7956 60.648 40.3098 58.1623 40.3098 55.1073C40.3098 52.0524 42.7955 49.5667 45.8505 49.5667Z" fill="#02133C"/>
<path d="M47.2147 20.3958C48.0701 20.3958 48.7615 21.0888 48.7615 21.9426C48.7615 22.7964 48.0701 23.4894 47.2147 23.4894H25.049C24.1936 23.4894 23.5022 22.7964 23.5022 21.9426C23.5022 21.0888 24.1936 20.3958 25.049 20.3958H47.2147Z" fill="#02133C"/>
<path d="M46.0079 28.428C46.8633 28.428 47.5547 29.121 47.5547 29.9748C47.5547 30.8286 46.8633 31.5216 46.0079 31.5216H26.2553C25.3999 31.5216 24.7085 30.8286 24.7085 29.9748C24.7085 29.121 25.3999 28.428 26.2553 28.428H46.0079V28.428Z" fill="#02133C"/>
<path d="M26.4164 49.5664C29.4713 49.5664 31.9571 52.0521 31.9571 55.1071C31.9571 58.162 29.4714 60.6478 26.4164 60.6478C23.3614 60.6478 20.8757 58.1621 20.8757 55.1071C20.8757 52.0522 23.3615 49.5664 26.4164 49.5664Z" fill="#02133C"/>
</g>
<defs>
<clipPath id="clip0_514_957">
<rect width="63" height="63" fill="white"/>
</clipPath>
</defs>
</svg>
