<svg width="63" height="63" viewBox="0 0 63 63" fill="none" xmlns="http://www.w3.org/2000/svg">
<g clip-path="url(#clip0_514_808)">
<path d="M53.7014 28.3685L51.402 21.2924L38.2528 25.5649C36.7561 26.0513 35.2204 24.9357 35.2204 23.3616V9.53564H27.7799V23.3616C27.7799 24.9357 26.2442 26.0513 24.7475 25.5649L11.5983 21.2924L9.29883 28.3685L22.4485 32.6411C23.9453 33.1275 24.5316 34.9328 23.6064 36.206L15.4795 47.3918L21.4992 51.7647L29.6261 40.579C30.5508 39.3058 32.4494 39.3058 33.3742 40.579L41.5011 51.7647L47.5203 47.3918L39.3934 36.206C38.4686 34.9328 39.055 33.1275 40.5518 32.6411L53.7014 28.3685Z" fill="#C40B0B"/>
<path d="M34.9732 31.5C34.9732 33.4183 33.4183 34.9732 31.5 34.9732C29.5818 34.9732 28.0269 33.4183 28.0269 31.5C28.0269 29.5818 29.5818 28.0269 31.5 28.0269C33.4183 28.0269 34.9732 29.5818 34.9732 31.5Z" fill="#02133C"/>
<path d="M59.6152 17.2809C57.4739 13.0545 54.3439 9.29917 50.5636 6.42151C50.1584 6.11293 49.5792 6.19128 49.2707 6.59695C48.9616 7.00214 49.0399 7.58132 49.4456 7.8899C53.0053 10.5998 55.9527 14.1355 57.969 18.1148C60.0824 22.2859 61.1543 26.7896 61.1543 31.5C61.1543 39.4211 58.07 46.8679 52.4689 52.4689C46.8679 58.07 39.4211 61.1543 31.5 61.1543C23.5789 61.1543 16.1321 58.07 10.5311 52.4689C4.93005 46.8679 1.8457 39.4211 1.8457 31.5C1.8457 23.5789 4.93005 16.1321 10.5311 10.5311C16.1321 4.93005 23.5789 1.8457 31.5 1.8457C36.8006 1.8457 42.0022 3.26074 46.5415 5.93797C46.9808 6.19704 47.5461 6.05093 47.8052 5.61209C48.0642 5.17278 47.9181 4.60705 47.4793 4.34846C42.6559 1.50348 37.1304 0 31.5 0C23.0862 0 15.1756 3.2766 9.22611 9.22611C3.2766 15.1756 0 23.0862 0 31.5C0 39.9138 3.2766 47.8244 9.22611 53.7739C15.1756 59.7234 23.0862 63 31.5 63C39.9138 63 47.8244 59.7234 53.7739 53.7739C59.7234 47.8244 63 39.9138 63 31.5C63 26.4969 61.8613 21.713 59.6152 17.2809Z" fill="#02133C"/>
<path d="M31.5002 11.2256C20.3207 11.2256 11.2258 20.3205 11.2258 31.5C11.2258 42.6794 20.3207 51.7743 31.5002 51.7743C42.6797 51.7743 51.7746 42.6794 51.7746 31.5C51.7746 20.3205 42.6797 11.2256 31.5002 11.2256ZM44.7744 18.7305L41.0258 23.6937L37.9674 24.6872C37.5386 24.8266 37.083 24.7545 36.7177 24.4892C36.3529 24.2238 36.1433 23.8129 36.1433 23.3616V20.8751L40.3322 15.3294C41.9823 16.2345 43.4795 17.3847 44.7744 18.7305V18.7305ZM46.0125 20.1542C46.4048 20.6545 46.771 21.1765 47.1104 21.7168L44.0909 22.6978L46.0125 20.1542ZM36.1433 13.6639C37.0003 13.8874 37.8338 14.171 38.6379 14.5099L36.1433 17.8129V13.6639ZM34.2976 13.2833V23.3616C34.2976 24.4108 34.7845 25.3659 35.6329 25.9826C36.1976 26.393 36.9383 26.804 38.5379 26.4425L48.0298 23.3587C48.8479 25.0126 49.4261 26.8059 49.7155 28.6934L40.2668 31.7634C39.2695 32.0878 38.5115 32.8458 38.187 33.8431C37.8631 34.841 38.0308 35.8998 38.6475 36.7482L44.3918 44.6549C42.013 46.987 39.0075 48.6813 35.6535 49.4566L35.729 45.3898L36.5076 46.4617C36.8071 46.8741 37.3844 46.9654 37.7968 46.666C38.2092 46.366 38.3005 45.7892 38.0006 45.3768L34.1212 40.0368C33.5045 39.188 32.5495 38.7016 31.5007 38.7016C30.4514 38.7016 29.4964 39.188 28.8797 40.0368L23.1489 47.9248C21.4709 47.0683 19.942 45.9618 18.6091 44.6549L24.3539 36.7482C24.9701 35.8998 25.1378 34.841 24.8139 33.8431C24.4894 32.8453 23.7314 32.0873 22.7341 31.7634L13.2854 28.6934C13.5748 26.8059 14.153 25.0126 14.9711 23.3587L23.1883 26.0287C23.818 26.1777 24.2246 25.8259 24.351 25.4361C24.5087 24.9516 24.2433 24.4305 23.7588 24.2734L22.2717 23.7903L18.525 18.4267C19.8502 17.1112 21.3734 15.9956 23.0455 15.1285L26.8571 20.5848V23.3616C26.8571 23.7792 26.6822 24.157 26.364 24.4257C25.9746 24.754 25.9251 25.3366 26.2539 25.7259C26.4365 25.9422 27.1042 26.232 27.5545 25.836C28.2717 25.2053 28.7028 24.3185 28.7028 23.3616V13.2833C29.6151 13.1439 30.5495 13.0713 31.5002 13.0713C32.4509 13.0713 33.3853 13.1439 34.2976 13.2833V13.2833ZM49.8352 33.362L45.7093 31.9359L49.9053 30.5723C49.9207 30.8799 49.8972 32.7492 49.8352 33.362ZM44.1885 41.2351L46.5908 42.0652C46.299 42.48 45.9914 42.8827 45.6679 43.2716L44.1885 41.2351ZM42.2942 38.628L40.1404 35.6634C39.8751 35.2985 39.803 34.8429 39.9424 34.4137C40.0818 33.9844 40.4081 33.6581 40.8369 33.5187L42.7965 32.8823L49.5521 35.2168C49.1685 37.0827 48.5009 38.8458 47.5982 40.4607L42.2942 38.628ZM26.4192 46.5626L26.3702 49.2014C25.8612 49.0534 25.3608 48.8842 24.8706 48.6943L26.4192 46.5626ZM13.0951 30.5723L16.2881 31.61L13.1042 32.5795C13.0831 32.2219 13.0797 30.8794 13.0951 30.5723ZM19.3532 32.6059L22.1631 33.5187C22.5923 33.6581 22.9187 33.9844 23.058 34.4137C23.1974 34.8429 23.1253 35.2985 22.86 35.6634L21.2527 37.8758L15.0345 39.7691C14.203 38.1209 13.6123 36.331 13.308 34.4468L19.3532 32.6059ZM19.4527 40.3531L17.3325 43.2716C16.8418 42.6818 16.3866 42.0618 15.9713 41.4134L19.4527 40.3531ZM19.3594 22.8439L15.8901 21.7163C16.3044 21.0573 16.7591 20.4257 17.2513 19.8264L19.3594 22.8439ZM26.8571 17.3616L24.7533 14.3503C25.4358 14.0807 26.1381 13.8514 26.8571 13.6644V17.3616ZM28.2082 49.6335L28.314 43.9556L30.3726 41.1216C30.6379 40.7568 31.0489 40.5473 31.5002 40.5473C31.9515 40.5473 32.3625 40.7568 32.6278 41.1216L33.929 42.9125L33.8011 49.7854C33.047 49.8796 32.2794 49.9286 31.5002 49.9286C30.3769 49.9286 29.2767 49.8272 28.2082 49.6335V49.6335Z" fill="#02133C"/>
<path d="M27.104 31.5C27.104 33.924 29.0761 35.8961 31.5 35.8961C33.924 35.8961 35.8961 33.924 35.8961 31.5C35.8961 29.0761 33.924 27.104 31.5 27.104C29.0761 27.104 27.104 29.0761 27.104 31.5ZM34.0504 31.5C34.0504 32.9064 32.9064 34.0504 31.5 34.0504C30.0937 34.0504 28.9497 32.9064 28.9497 31.5C28.9497 30.0937 30.0937 28.9497 31.5 28.9497C32.9064 28.9497 34.0504 30.0937 34.0504 31.5Z" fill="black"/>
</g>
<defs>
<clipPath id="clip0_514_808">
<rect width="63" height="63" fill="white"/>
</clipPath>
</defs>
</svg>
